<?xml version="1.0" encoding="iso-8859-1"?>
<!-- Generator: Adobe Illustrator 19.0.0, SVG Export Plug-In . SVG Version: 6.00 Build 0)  -->
<svg version="1.1" id="Layer_1" xmlns="http://www.w3.org/2000/svg" xmlns:xlink="http://www.w3.org/1999/xlink" x="0px" y="0px"
	 viewBox="0 0 512 512" style="enable-background:new 0 0 512 512;" xml:space="preserve">
<g>
	<g>
		<path d="M256,0C114.842,0,0,114.842,0,256c0,64.179,23.791,122.863,62.942,167.842c0.128,0.145,0.23,0.299,0.375,0.427
			C110.276,477.978,179.217,512,256,512c74.368,0,144.76-32.179,193.126-88.294c0.273-0.316,0.367-0.7,0.589-1.041
			c0.324-0.512,0.666-0.998,0.888-1.579c0.213-0.58,0.273-1.169,0.358-1.766c0.06-0.41,0.239-0.768,0.239-1.186
			c0-0.102-0.06-0.196-0.068-0.299c-0.017-0.623-0.205-1.203-0.358-1.809c-0.128-0.478-0.188-0.973-0.393-1.425
			c-0.205-0.444-0.546-0.819-0.828-1.229c-0.358-0.512-0.674-1.033-1.126-1.451c-0.077-0.077-0.111-0.179-0.196-0.247
			c-0.316-0.273-0.7-0.367-1.041-0.589c-0.512-0.333-0.998-0.666-1.579-0.887c-0.572-0.213-1.152-0.265-1.749-0.35
			c-0.41-0.06-0.776-0.247-1.195-0.247h-87.808l-33.451-59.563l50.398-85.504h67.14l42.701,69.769
			c-6.494,18.714-15.181,36.676-26.257,53.41c-2.594,3.925-1.519,9.224,2.415,11.819c3.925,2.603,9.225,1.527,11.819-2.406
			C497.348,355.234,512,306.432,512,256C512,114.842,397.158,0,256,0z M422.989,85.333H354.97L323.635,26.88
			C361.506,38.084,395.469,58.411,422.989,85.333z M256,17.067c15.514,0,30.66,1.545,45.363,4.378l38.758,72.32L306.347,153.6
			H205.705L171.87,93.756l38.69-72.294C225.28,18.611,240.461,17.067,256,17.067z M188.288,26.897l-31.266,58.436H89.003
			C116.506,58.428,150.443,38.101,188.288,26.897z M73.165,102.4h83.985l33.792,59.767l-50.731,85.299H73.028l-42.82-69.47
			C39.868,150.101,54.537,124.544,73.165,102.4z M17.067,256c0-19.268,2.355-37.999,6.682-55.962L58.231,256l-34.517,55.842
			C19.413,293.914,17.067,275.234,17.067,256z M73.165,409.6c-18.662-22.17-33.34-47.778-42.999-75.725l42.854-69.342h67.191
			l50.765,85.376L157.389,409.6H73.165z M89.003,426.667h67.968l30.532,58.214C149.982,473.634,116.309,453.402,89.003,426.667z
			 M354.893,426.667h67.985c-28.279,27.853-62.891,47.974-100.642,58.863L354.893,426.667z M340.087,418.167l-40.303,72.653
			c-14.319,2.671-28.962,4.113-43.785,4.113c-15.855,0-31.334-1.587-46.336-4.54l-37.7-71.885L205.79,358.4h100.736L340.087,418.167
			z M306.722,341.333H205.739L154.991,256l50.748-85.333h100.685l50.594,85.35L306.722,341.333z M371.789,247.467l-50.62-85.393
			L354.85,102.4h83.977c18.543,22.042,33.152,47.462,42.82,75.187l-42.701,69.879H371.789z M453.734,256l34.423-56.328
			c4.386,18.074,6.775,36.924,6.775,56.328c0,19.123-2.372,37.956-6.784,56.235L453.734,256z"/>
	</g>
</g>
<g>
</g>
<g>
</g>
<g>
</g>
<g>
</g>
<g>
</g>
<g>
</g>
<g>
</g>
<g>
</g>
<g>
</g>
<g>
</g>
<g>
</g>
<g>
</g>
<g>
</g>
<g>
</g>
<g>
</g>
</svg>
