<?xml version="1.0" encoding="iso-8859-1"?>
<!-- Generator: Adobe Illustrator 19.0.0, SVG Export Plug-In . SVG Version: 6.00 Build 0)  -->
<svg version="1.1" id="Layer_1" xmlns="http://www.w3.org/2000/svg" xmlns:xlink="http://www.w3.org/1999/xlink" x="0px" y="0px"
	 viewBox="0 0 512 512" style="enable-background:new 0 0 512 512;" xml:space="preserve">
<g>
	<g>
		<g>
			<path d="M238.933,170.667c-4.719,0-8.533,3.823-8.533,8.533c0,4.719,3.814,8.533,8.533,8.533h34.133
				c4.719,0,8.533-3.814,8.533-8.533c0-4.71-3.814-8.533-8.533-8.533H238.933z"/>
			<path d="M222.31,147.772c1.152,3.482,4.412,5.828,8.09,5.828h51.2c3.678,0,6.929-2.347,8.09-5.828l7.91-23.723
				c17.698-18.193,26.667-36.949,26.667-55.782C324.267,30.626,293.641,0,256,0c-37.641,0-68.267,30.626-68.267,68.267
				c0,18.833,8.969,37.589,26.667,55.782L222.31,147.772z M256,17.067c28.228,0,51.2,22.972,51.2,51.2
				c0,14.643-7.774,29.841-23.1,45.167c-0.939,0.939-1.647,2.082-2.057,3.337l-6.596,19.763h-10.914V76.8
				c0-4.71-3.814-8.533-8.533-8.533c-4.719,0-8.533,3.823-8.533,8.533v59.733h-10.914l-6.596-19.763
				c-0.418-1.254-1.126-2.398-2.057-3.337c-15.326-15.326-23.1-30.524-23.1-45.167C204.8,40.038,227.763,17.067,256,17.067z"/>
			<path d="M125.943,18.637l31.531,13.056c1.067,0.444,2.176,0.657,3.268,0.657c3.337,0,6.519-1.988,7.885-5.274
				c1.801-4.352-0.273-9.344-4.617-11.145L132.471,2.867c-4.326-1.792-9.344,0.265-11.145,4.617
				C119.526,11.844,121.591,16.836,125.943,18.637z"/>
			<path d="M351.249,32.35c1.092,0,2.202-0.213,3.268-0.657l31.531-13.056c4.352-1.801,6.417-6.792,4.617-11.153
				c-1.801-4.352-6.818-6.409-11.145-4.617l-31.539,13.065c-4.352,1.801-6.417,6.792-4.617,11.145
				C344.721,30.362,347.904,32.35,351.249,32.35z"/>
			<path d="M349.867,68.267c0,4.719,3.814,8.533,8.533,8.533h34.133c4.719,0,8.533-3.814,8.533-8.533
				c0-4.71-3.814-8.533-8.533-8.533H358.4C353.681,59.733,349.867,63.556,349.867,68.267z"/>
			<path d="M354.526,104.849c-4.343-1.792-9.353,0.256-11.153,4.617c-1.801,4.352,0.265,9.344,4.617,11.145l31.531,13.065
				c1.067,0.435,2.176,0.649,3.268,0.649c3.345,0,6.528-1.988,7.885-5.265c1.8-4.361-0.265-9.353-4.617-11.153L354.526,104.849z"/>
			<path d="M157.483,104.849l-31.531,13.056c-4.352,1.801-6.417,6.793-4.617,11.153c1.357,3.277,4.54,5.265,7.876,5.265
				c1.092,0,2.202-0.213,3.268-0.649l31.539-13.065c4.344-1.801,6.417-6.793,4.617-11.145
				C166.835,105.105,161.826,103.066,157.483,104.849z"/>
			<path d="M256,443.733c20.028,0,30.507-9.899,31.633-11.025c3.294-3.294,3.285-8.568,0.051-11.913
				c-3.251-3.354-8.61-3.439-12.015-0.256c-0.273,0.256-6.716,6.127-19.669,6.127c-12.774,0-19.209-5.709-19.652-6.11
				c-3.319-3.251-8.67-3.226-11.981,0.077c-3.337,3.337-3.337,8.738,0,12.075C225.493,433.835,235.972,443.733,256,443.733z"/>
			<path d="M298.667,349.867c4.719,0,8.533-3.814,8.533-8.533h8.533c4.719,0,8.533-3.814,8.533-8.533
				c0-4.71-3.814-8.533-8.533-8.533H281.6c-4.719,0-8.533,3.823-8.533,8.533c0,4.719,3.814,8.533,8.533,8.533h8.533
				C290.133,346.052,293.948,349.867,298.667,349.867z"/>
			<path d="M238.933,332.8c0-4.71-3.814-8.533-8.533-8.533h-34.133c-4.719,0-8.533,3.823-8.533,8.533
				c0,4.719,3.814,8.533,8.533,8.533h8.533c0,4.719,3.814,8.533,8.533,8.533s8.533-3.814,8.533-8.533h8.533
				C235.119,341.333,238.933,337.519,238.933,332.8z"/>
			<path d="M119.467,76.8H153.6c4.719,0,8.533-3.814,8.533-8.533c0-4.71-3.814-8.533-8.533-8.533h-34.133
				c-4.719,0-8.533,3.823-8.533,8.533C110.933,72.986,114.748,76.8,119.467,76.8z"/>
			<path d="M110.933,273.067c4.719,0,8.533-3.814,8.533-8.533c0-0.836,0.819-84.164,71.723-115.686
				c4.309-1.911,6.246-6.955,4.335-11.255c-1.92-4.309-6.946-6.263-11.264-4.335c-80.93,35.977-81.86,127.403-81.86,131.277
				C102.4,269.252,106.214,273.067,110.933,273.067z"/>
			<path d="M392.533,291.601v-44.134c0-0.879-0.862-88.269-75.409-100.907c-4.642-0.819-9.054,2.338-9.839,6.989
				c-0.785,4.651,2.338,9.054,6.989,9.839c60.262,10.214,61.184,81.084,61.193,84.079v51.2c0,4.719,3.814,8.533,8.533,8.533
				c4.71,0,8.533,3.831,8.533,8.533v34.133c0,4.71-3.823,8.533-8.533,8.533c-3.558,0-6.741,2.21-7.996,5.538
				c-0.247,0.683-25.446,67.644-41.771,92.134l-1.399,2.108C322.611,473.694,308.6,494.933,256,494.933
				s-66.611-21.239-76.834-36.753l-1.399-2.108c-16.324-24.491-41.523-91.452-41.779-92.134c-1.246-3.328-4.429-5.538-7.987-5.538
				c-4.71,0-8.533-3.823-8.533-8.533v-34.133c0-2.313,0.922-4.412,2.423-5.948c3.396,7.62,10.598,14.481,23.177,14.481
				c3.234,0,6.187-1.818,7.629-4.71c7.817-15.633,15.514-44.331,17.485-63.633c26.897-0.478,104.713-3.763,139.332-25.37
				c7.851,30.31,33.05,55.825,34.321,57.088c3.328,3.328,8.73,3.328,12.066,0c3.337-3.336,3.337-8.738,0-12.075
				c-0.316-0.316-31.633-31.983-31.633-62.234c0-3.831-2.56-7.194-6.263-8.218c-3.661-1.033-7.612,0.538-9.591,3.831
				c-12.416,20.685-93.013,29.986-146.278,29.986c-4.719,0-8.533,3.823-8.533,8.533c0,13.858-6.554,41.515-13.508,58.547
				c-2.722-1.647-3.49-4.693-3.558-7.347c0-4.71-3.814-8.533-8.533-8.533c-14.114,0-25.6,11.486-25.6,25.6v34.133
				c0,11.989,8.286,22.084,19.43,24.858c6.229,16.188,26.803,68.412,41.737,90.812l1.348,2.039C175.872,484.198,194.21,512,256,512
				s80.128-27.802,91.085-44.425l1.348-2.039c14.933-22.4,35.507-74.624,41.737-90.812c11.145-2.773,19.43-12.868,19.43-24.858
				v-34.133C409.6,304.614,402.466,295.117,392.533,291.601z"/>
		</g>
	</g>
</g>
<g>
</g>
<g>
</g>
<g>
</g>
<g>
</g>
<g>
</g>
<g>
</g>
<g>
</g>
<g>
</g>
<g>
</g>
<g>
</g>
<g>
</g>
<g>
</g>
<g>
</g>
<g>
</g>
<g>
</g>
</svg>
